<?xml version="1.0" encoding="UTF-8" standalone="no"?>
<!DOCTYPE svg PUBLIC "-//W3C//DTD SVG 1.1//EN"
 "http://www.w3.org/Graphics/SVG/1.1/DTD/svg11.dtd">
<!-- Generated by graphviz version 12.1.1 (20240910.0053)
 -->
<!-- Title: INFRA Pages: 1 -->
<svg width="132pt" height="80pt"
 viewBox="0.00 0.00 132.17 80.00" xmlns="http://www.w3.org/2000/svg" xmlns:xlink="http://www.w3.org/1999/xlink">
<g id="graph0" class="graph" transform="scale(1 1) rotate(0) translate(4 76)">
<title>INFRA</title>
<polygon fill="white" stroke="none" points="-4,4 -4,-76 128.17,-76 128.17,4 -4,4"/>
<!-- RuleStandardizer -->
<g id="node1" class="node">
<title>RuleStandardizer</title>
<path fill="#e6e6e6" stroke="black" stroke-width="2" d="M112.17,-72C112.17,-72 12,-72 12,-72 6,-72 0,-66 0,-60 0,-60 0,-12 0,-12 0,-6 6,0 12,0 12,0 112.17,0 112.17,0 118.17,0 124.17,-6 124.17,-12 124.17,-12 124.17,-60 124.17,-60 124.17,-66 118.17,-72 112.17,-72"/>
<text text-anchor="middle" x="62.09" y="-40.2" font-family="Arial" font-size="14.00">RuleStandardizer</text>
<text text-anchor="middle" x="62.09" y="-23.4" font-family="Arial" font-size="14.00">(Python::Script)</text>
</g>
</g>
</svg>
